<svg width="155" height="37" viewBox="0 0 155 37" fill="none" xmlns="http://www.w3.org/2000/svg">
<path d="M15.904 16.416C13.952 16.416 12.208 16.8 10.672 17.568C9.136 18.304 8.032 19.376 7.36 20.784V36H0.928V10.848H6.832V16.224C7.728 14.496 8.864 13.136 10.24 12.144C11.616 11.152 13.072 10.608 14.608 10.512C14.96 10.512 15.232 10.512 15.424 10.512C15.616 10.512 15.776 10.528 15.904 10.56V16.416ZM30.8264 36.48C28.8104 36.48 26.9864 36.144 25.3544 35.472C23.7224 34.768 22.3304 33.824 21.1784 32.64C20.0264 31.424 19.1304 30.048 18.4904 28.512C17.8824 26.944 17.5784 25.296 17.5784 23.568C17.5784 21.168 18.1064 18.976 19.1624 16.992C20.2504 15.008 21.7864 13.424 23.7704 12.24C25.7864 11.024 28.1544 10.416 30.8744 10.416C33.6264 10.416 35.9784 11.024 37.9304 12.24C39.8824 13.424 41.3704 15.008 42.3944 16.992C43.4504 18.944 43.9784 21.056 43.9784 23.328C43.9784 23.712 43.9624 24.112 43.9304 24.528C43.8984 24.912 43.8664 25.232 43.8344 25.488H24.3944C24.5224 26.768 24.8904 27.888 25.4984 28.848C26.1384 29.808 26.9384 30.544 27.8984 31.056C28.8904 31.536 29.9464 31.776 31.0664 31.776C32.3464 31.776 33.5464 31.472 34.6664 30.864C35.8184 30.224 36.6024 29.392 37.0184 28.368L42.5384 29.904C41.9304 31.184 41.0504 32.32 39.8984 33.312C38.7784 34.304 37.4504 35.088 35.9144 35.664C34.3784 36.208 32.6824 36.48 30.8264 36.48ZM24.2504 21.408H37.4024C37.2744 20.128 36.9064 19.024 36.2984 18.096C35.7224 17.136 34.9544 16.4 33.9944 15.888C33.0344 15.344 31.9624 15.072 30.7784 15.072C29.6264 15.072 28.5704 15.344 27.6104 15.888C26.6824 16.4 25.9144 17.136 25.3064 18.096C24.7304 19.024 24.3784 20.128 24.2504 21.408Z" fill="black"/>
<path d="M85.7688 36H82.5048V22.032C82.5048 19.12 82.0408 16.976 81.1128 15.6C80.1848 14.224 78.8088 13.536 76.9848 13.536C75.0968 13.536 73.4008 14.208 71.8968 15.552C70.4248 16.896 69.3848 18.624 68.7768 20.736V36H65.5128V22.032C65.5128 19.088 65.0648 16.944 64.1688 15.6C63.2728 14.224 61.8968 13.536 60.0408 13.536C58.1848 13.536 56.5048 14.192 55.0008 15.504C53.4968 16.816 52.4408 18.544 51.8328 20.688V36H48.5688V10.992H51.5448V16.656C52.6008 14.704 53.9448 13.2 55.5768 12.144C57.2408 11.088 59.0808 10.56 61.0968 10.56C63.1768 10.56 64.8568 11.152 66.1368 12.336C67.4168 13.52 68.2008 15.072 68.4888 16.992C69.6408 14.88 71.0168 13.28 72.6168 12.192C74.2488 11.104 76.0888 10.56 78.1368 10.56C79.5448 10.56 80.7288 10.816 81.6888 11.328C82.6808 11.84 83.4648 12.576 84.0408 13.536C84.6488 14.464 85.0808 15.6 85.3368 16.944C85.6248 18.256 85.7688 19.728 85.7688 21.36V36ZM92.6781 36V10.992H95.9421V36H92.6781ZM92.6781 5.76V0.959999H95.9421V5.76H92.6781ZM124.155 36H120.891V22.032C120.891 19.088 120.459 16.944 119.595 15.6C118.731 14.224 117.371 13.536 115.515 13.536C114.235 13.536 112.971 13.856 111.723 14.496C110.475 15.104 109.371 15.952 108.411 17.04C107.483 18.096 106.811 19.312 106.395 20.688V36H103.131V10.992H106.107V16.656C106.779 15.44 107.659 14.384 108.747 13.488C109.835 12.56 111.067 11.84 112.443 11.328C113.819 10.816 115.243 10.56 116.715 10.56C118.091 10.56 119.259 10.816 120.219 11.328C121.179 11.84 121.947 12.576 122.523 13.536C123.099 14.464 123.515 15.6 123.771 16.944C124.027 18.256 124.155 19.728 124.155 21.36V36ZM129.436 23.568C129.436 21.2 129.916 19.04 130.876 17.088C131.868 15.104 133.228 13.52 134.956 12.336C136.684 11.152 138.652 10.56 140.86 10.56C142.94 10.56 144.796 11.12 146.428 12.24C148.092 13.328 149.388 14.656 150.316 16.224V0.959999H153.58V32.064C153.58 32.512 153.676 32.848 153.868 33.072C154.06 33.264 154.348 33.376 154.732 33.408V36C154.092 36.096 153.596 36.128 153.244 36.096C152.572 36.064 151.98 35.792 151.468 35.28C150.956 34.768 150.7 34.208 150.7 33.6V31.152C149.708 32.784 148.364 34.08 146.668 35.04C144.972 36 143.212 36.48 141.388 36.48C139.66 36.48 138.06 36.128 136.588 35.424C135.148 34.72 133.884 33.76 132.796 32.544C131.74 31.328 130.908 29.952 130.3 28.416C129.724 26.848 129.436 25.232 129.436 23.568ZM150.316 27.408V19.68C149.9 18.528 149.228 17.488 148.3 16.56C147.372 15.6 146.316 14.848 145.132 14.304C143.98 13.728 142.828 13.44 141.676 13.44C140.332 13.44 139.116 13.728 138.028 14.304C136.94 14.848 135.996 15.6 135.196 16.56C134.428 17.52 133.836 18.608 133.42 19.824C133.004 21.04 132.796 22.288 132.796 23.568C132.796 24.912 133.02 26.192 133.468 27.408C133.948 28.624 134.62 29.712 135.484 30.672C136.348 31.6 137.34 32.32 138.46 32.832C139.58 33.344 140.796 33.6 142.108 33.6C142.94 33.6 143.804 33.44 144.7 33.12C145.596 32.8 146.444 32.368 147.244 31.824C148.076 31.248 148.764 30.576 149.308 29.808C149.852 29.04 150.188 28.24 150.316 27.408Z" fill="#4582F6"/>
</svg>
